#!OML:ASF Y:\EmotionMaleHayes\Project 1\Capture day 1\Session 1\Male1.ASF
:FULLY-SPECIFIED
:DEGREES
353
root 46.1066 17.3366 -1.70002 410.889 85.4776 414.16
lowerback 9.31726 1.41874 -5.85948
upperback 2.02838 1.36208 -0.720258
thorax -3.22675 0.752472 2.38029
lowerneck -24.1571 0.876275 0.123276
upperneck 14.1239 1.26146 -0.567894
head 8.32258 0.539996 -0.0386815
rclavicle -1.10822e-014 5.46658e-016
rhumerus -37.773 2.22468 -86.6123
rradius 31.605
rwrist -0.919953
rhand -7.37368 -33.005
rfingers 7.12502
rthumb 18.5114 -62.1442
lclavicle -1.10822e-014 5.46658e-016
lhumerus -34.1729 -15.8211 92.708
lradius 31.4614
lwrist 6.74206
lhand -21.906 -24.4329
lfingers 7.12502
lthumb 4.49951 5.49928
rfemur 6.39175 -1.96514 11.1133
rtibia 5.83898
rfoot -10.7588 2.68615
rtoes 7.25434
lfemur 9.74903 1.5179 -19.9626
ltibia 1.79847
lfoot -11.2859 9.216
ltoes 7.06025
354
root 46.1123 17.3421 -1.71735 414.151 85.3639 417.148
lowerback 9.04624 1.31685 -5.88453
upperback 1.961 1.23573 -0.844923
thorax -3.13369 0.68802 2.28428
lowerneck -24.2433 0.990886 0.394754
upperneck 14.3408 1.38359 -0.849091
head 8.4157 0.580511 -0.160382
rclavicle 5.51006e-015 7.15625e-015
rhumerus -37.6448 2.26491 -86.6622
rradius 31.4827
rwrist -0.730184
rhand -8.60333 -31.1368
rfingers 7.12502
rthumb 17.3282 -60.3843
lclavicle 5.51006e-015 7.15625e-015
lhumerus -34.1332 -15.2315 92.5035
lradius 30.6549
lwrist 6.13831
lhand -21.8392 -24.3295
lfingers 7.12502
lthumb 4.56404 5.60129
rfemur 6.15178 -2.89208 10.5232
rtibia 5.90294
rfoot -10.5354 3.49351
rtoes 7.95952
lfemur 9.38955 1.56458 -20.4373
ltibia 1.95468
lfoot -11.2651 9.0403
ltoes 7.06352
355
root 46.1196 17.3412 -1.71425 408.659 85.5968 411.7
lowerback 9.07453 1.33428 -5.49731
upperback 1.95462 1.2943 -0.725274
thorax -3.15612 0.713703 2.18412
lowerneck -24.1801 1.02937 0.532082
upperneck 14.4285 1.40797 -0.936312
head 8.43725 0.589917 -0.208896
rclavicle -1.32378e-014 6.70898e-015
rhumerus -37.6251 2.15803 -86.6332
rradius 31.5724
rwrist -0.564211
rhand -8.49158 -31.0139
rfingers 7.12502
rthumb 17.4358 -60.252
lclavicle -1.32378e-014 6.70898e-015
lhumerus -34.1667 -14.5458 92.2835
lradius 29.7958
lwrist 5.36263
lhand -21.7677 -24.5194
lfingers 7.12502
lthumb 4.63308 5.40995
rfemur 6.25256 -2.41206 11.2107
rtibia 5.73586
rfoot -10.5172 3.21405
rtoes 8.79908
lfemur 9.48994 1.69449 -19.7891
ltibia 1.98167
lfoot -11.3572 9.05255
ltoes 6.87016
356
root 46.1296 17.3401 -1.71994 408.778 85.4954 411.826
lowerback 8.95965 1.32808 -5.53082
upperback 2.00662 1.2928 -0.76431
thorax -3.03776 0.709968 2.16531
lowerneck -23.9521 1.05493 0.408237
upperneck 14.2188 1.44015 -0.724833
head 8.32534 0.623067 -0.113783
rclavicle 1.0312e-015 3.67752e-014
rhumerus -37.5229 2.09499 -86.5941
rradius 31.7791
rwrist -0.739201
rhand -8.19907 -31.3172
rfingers 7.12502
rthumb 17.7173 -60.53
lclavicle 1.0312e-015 3.67752e-014
lhumerus -34.0696 -13.7287 92.0024
lradius 28.8933
lwrist 4.51365
lhand -21.567 -24.7321
lfingers 7.12502
lthumb 4.82692 5.19292
rfemur 6.33398 -2.65852 10.9923
rtibia 5.66742
rfoot -10.3203 3.51048
rtoes 8.99217
lfemur 9.55707 1.83205 -19.9196
ltibia 1.96965
lfoot -11.3548 8.98965
ltoes 6.13994
357
root 46.1333 17.34 -1.72071 407.963 85.4439 411.004
lowerback 8.84442 1.32254 -5.55875
upperback 2.11581 1.29736 -0.763227
thorax -2.86092 0.707234 2.18508
lowerneck -24.1075 1.10291 0.458246
upperneck 14.2592 1.49245 -0.745028
head 8.36559 0.647758 -0.120695
rclavicle -7.45443e-017 -6.31141e-015
rhumerus -37.2242 2.16697 -86.6132
rradius 31.92
rwrist -1.07909
rhand -8.80107 -31.0632
rfingers 7.12502
rthumb 17.1379 -60.3274
lclavicle -7.45443e-017 -6.31141e-015
lhumerus -33.817 -13.0388 91.7208
lradius 27.9843
lwrist 3.8132
lhand -21.5379 -24.8666
lfingers 7.12502
lthumb 4.855 5.05779
rfemur 6.34084 -2.59992 10.9959
rtibia 5.62243
rfoot -10.2778 3.51398
rtoes 8.71547
lfemur 9.57804 1.86073 -19.9083
ltibia 1.96359
lfoot -11.3852 9.09109
ltoes 6.40915
